<mxfile host="app.diagrams.net" modified="2023-09-16T15:24:12.175Z" agent="Mozilla/5.0 (X11; Linux x86_64) AppleWebKit/537.36 (KHTML, like Gecko) Chrome/116.0.0.0 Safari/537.36 OPR/102.0.0.0" version="21.7.5" etag="0oZj7DBvsrQUoKJW6rrP" type="github">
  <diagram name="Page-1" id="ppAm_MthXDC_LIjl4v1W">
    <mxGraphModel>
      <root>
        <mxCell id="0" />
        <mxCell id="1" parent="0" />
      </root>
    </mxGraphModel>
  </diagram>
</mxfile>
